<mxfile host="app.diagrams.net" agent="Mozilla/5.0 (Windows NT 10.0; Win64; x64) AppleWebKit/537.36 (KHTML, like Gecko) Chrome/128.0.0.0 Safari/537.36 Edg/128.0.0.0" version="24.7.14">
  <diagram name="ページ1" id="i7uMnIg1qSyaQqQBlLaK">
    <mxGraphModel dx="1042" dy="567" grid="1" gridSize="10" guides="1" tooltips="1" connect="1" arrows="1" fold="1" page="1" pageScale="1" pageWidth="827" pageHeight="1169" math="0" shadow="0">
      <root>
        <mxCell id="0" />
        <mxCell id="1" parent="0" />
        <mxCell id="z5mBts0z8LkfcXxQW7RD-8" style="edgeStyle=orthogonalEdgeStyle;rounded=0;orthogonalLoop=1;jettySize=auto;html=1;exitX=1;exitY=0.25;exitDx=0;exitDy=0;entryX=0;entryY=0.5;entryDx=0;entryDy=0;" parent="1" source="z5mBts0z8LkfcXxQW7RD-2" target="z5mBts0z8LkfcXxQW7RD-3" edge="1">
          <mxGeometry relative="1" as="geometry" />
        </mxCell>
        <mxCell id="z5mBts0z8LkfcXxQW7RD-9" style="edgeStyle=orthogonalEdgeStyle;rounded=0;orthogonalLoop=1;jettySize=auto;html=1;exitX=1;exitY=0.75;exitDx=0;exitDy=0;entryX=0;entryY=0.5;entryDx=0;entryDy=0;" parent="1" source="z5mBts0z8LkfcXxQW7RD-2" target="z5mBts0z8LkfcXxQW7RD-4" edge="1">
          <mxGeometry relative="1" as="geometry" />
        </mxCell>
        <mxCell id="6bEu5KR3_NQVinYE6fnb-2" style="edgeStyle=orthogonalEdgeStyle;rounded=0;orthogonalLoop=1;jettySize=auto;html=1;exitX=0.5;exitY=1;exitDx=0;exitDy=0;entryX=0;entryY=0.5;entryDx=0;entryDy=0;" edge="1" parent="1" source="z5mBts0z8LkfcXxQW7RD-2" target="6bEu5KR3_NQVinYE6fnb-1">
          <mxGeometry relative="1" as="geometry" />
        </mxCell>
        <mxCell id="z5mBts0z8LkfcXxQW7RD-2" value="非表示" style="rounded=1;whiteSpace=wrap;html=1;" parent="1" vertex="1">
          <mxGeometry x="180" y="210" width="120" height="140" as="geometry" />
        </mxCell>
        <mxCell id="z5mBts0z8LkfcXxQW7RD-3" value="&lt;div&gt;A画面&lt;/div&gt;表示" style="rounded=1;whiteSpace=wrap;html=1;" parent="1" vertex="1">
          <mxGeometry x="380" y="215" width="120" height="60" as="geometry" />
        </mxCell>
        <mxCell id="z5mBts0z8LkfcXxQW7RD-4" value="&lt;div&gt;B画面&lt;/div&gt;表示" style="rounded=1;whiteSpace=wrap;html=1;" parent="1" vertex="1">
          <mxGeometry x="380" y="285" width="120" height="60" as="geometry" />
        </mxCell>
        <mxCell id="6bEu5KR3_NQVinYE6fnb-1" value="&lt;div&gt;C画面&lt;/div&gt;表示" style="rounded=1;whiteSpace=wrap;html=1;" vertex="1" parent="1">
          <mxGeometry x="380" y="370" width="120" height="60" as="geometry" />
        </mxCell>
      </root>
    </mxGraphModel>
  </diagram>
</mxfile>
